<svg width="50" height="49" viewBox="0 0 50 49" fill="none" xmlns="http://www.w3.org/2000/svg">
<path d="M0.648712 12.003C0.648712 5.39732 6.00367 0.0423584 12.6093 0.0423584H37.5675C44.1732 0.0423584 49.5281 5.39732 49.5281 12.003V36.9611C49.5281 43.5668 44.1732 48.9218 37.5675 48.9218H12.6093C6.00367 48.9218 0.648712 43.5668 0.648712 36.9611V12.003Z" fill="#FF9B53"/>
<path d="M29.2789 13.53C28.7864 13.0423 28.1185 12.7684 27.4222 12.7684C26.7258 12.7684 26.058 13.0423 25.5654 13.53L14.0328 24.9561C13.7889 25.1978 13.5954 25.4846 13.4634 25.8003C13.3314 26.116 13.2634 26.4544 13.2634 26.7961C13.2634 27.1378 13.3314 27.4762 13.4634 27.7919C13.5954 28.1076 13.7889 28.3945 14.0328 28.6361L15.4009 29.9904C15.9963 30.5813 16.8333 30.4761 17.3388 30.1777C17.6176 30.0137 17.9437 29.9464 18.2655 29.9864C18.5872 30.0263 18.8864 30.1714 19.1157 30.3985C19.345 30.6257 19.4914 30.922 19.5317 31.2408C19.5721 31.5596 19.5041 31.8826 19.3386 32.1588C19.0385 32.6596 18.9311 33.4888 19.5277 34.0786L20.897 35.434C21.1409 35.6756 21.4305 35.8673 21.7492 35.9981C22.0678 36.1288 22.4094 36.1961 22.7543 36.1961C23.0993 36.1961 23.4408 36.1288 23.7595 35.9981C24.0782 35.8673 24.3678 35.6756 24.6117 35.434L36.1432 24.0101C36.3871 23.7685 36.5805 23.4816 36.7125 23.1659C36.8446 22.8502 36.9125 22.5119 36.9125 22.1702C36.9125 21.8284 36.8446 21.4901 36.7125 21.1744C36.5805 20.8587 36.3871 20.5718 36.1432 20.3302L34.7761 18.9748C34.1808 18.3849 33.3426 18.489 32.8371 18.7874C32.5583 18.9514 32.2322 19.0188 31.9105 18.9788C31.5887 18.9388 31.2895 18.7938 31.0602 18.5666C30.8309 18.3394 30.6845 18.0431 30.6442 17.7243C30.6038 17.4056 30.6718 17.0826 30.8374 16.8063C31.1385 16.3056 31.2448 15.4764 30.6482 14.8865L29.2801 13.53H29.2789Z" fill="white"/>
</svg>
