<svg width="49" height="49" viewBox="0 0 49 49" fill="none" xmlns="http://www.w3.org/2000/svg">
<path d="M0.0458984 12.003C0.0458984 5.39732 5.40086 0.0423584 12.0065 0.0423584H36.9647C43.5703 0.0423584 48.9253 5.39732 48.9253 12.003V36.9611C48.9253 43.5668 43.5703 48.9218 36.9647 48.9218H12.0065C5.40086 48.9218 0.0458984 43.5668 0.0458984 36.9611V12.003Z" fill="#79CA00"/>
<path d="M32.2924 15.7808H16.6783C15.6019 15.7808 14.7266 16.648 14.7266 17.7144V31.2493C14.7266 32.3156 15.6019 33.1828 16.6783 33.1828H32.2924C33.3688 33.1828 34.2442 32.3156 34.2442 31.2493V17.7144C34.2442 16.648 33.3688 15.7808 32.2924 15.7808ZM32.2934 21.5815C32.2924 21.5815 32.2924 21.5815 32.2934 21.5815H31.8396L29.2369 17.7144H32.2924L32.2934 21.5815ZM27.9009 27.3822L22.5336 30.2825V24.4818L27.9009 27.3822ZM26.9602 21.5815L24.3575 17.7144H26.8909L29.4936 21.5815H26.9602ZM24.6142 21.5815H22.0808L19.4781 17.7144H22.0115L24.6142 21.5815ZM16.6783 17.7144H17.1321L19.7348 21.5815H16.6783V17.7144Z" fill="white"/>
</svg>
