<svg width="88" height="19" viewBox="0 0 88 19" fill="none" xmlns="http://www.w3.org/2000/svg">
<line x1="3.81305" y1="9.60252" x2="81.2221" y2="9.60252" stroke="#CCCCCC" stroke-width="0.74754" stroke-dasharray="2.24 2.24"/>
<path d="M43.1189 17.0169H42.0982C41.9956 17.0169 41.8947 16.9934 41.8047 16.9485C41.7146 16.9036 41.6383 16.8388 41.5827 16.7601C41.5272 16.6813 41.4941 16.591 41.4865 16.4976C41.479 16.4041 41.4972 16.3104 41.5395 16.225L44.0112 11.2404L40.2998 11.1651L38.9463 12.6638C38.6882 12.9602 38.4823 13.0924 37.957 13.0924H37.2699C37.1611 13.0956 37.0531 13.0747 36.9549 13.0317C36.8568 12.9886 36.7715 12.9246 36.7062 12.845C36.615 12.7325 36.5253 12.5419 36.6127 12.2699L37.3727 9.78203C37.3784 9.76346 37.3853 9.74489 37.393 9.72667C37.3934 9.72494 37.3934 9.72315 37.393 9.72141C37.3851 9.70321 37.3783 9.68461 37.3727 9.6657L36.6119 7.16202C36.5295 6.89536 36.6196 6.70895 36.7101 6.59927C36.7708 6.52558 36.8497 6.46596 36.9402 6.42518C37.0308 6.38441 37.1306 6.36362 37.2315 6.36449H37.957C38.3493 6.36449 38.73 6.52533 38.954 6.78498L40.2795 8.25846L44.0112 8.208L41.5403 3.23219C41.4979 3.14684 41.4796 3.05316 41.4871 2.9597C41.4946 2.86623 41.5276 2.77597 41.5831 2.69717C41.6386 2.61836 41.7148 2.55352 41.8048 2.50858C41.8948 2.46364 41.9956 2.44003 42.0982 2.43991H43.13C43.274 2.44255 43.4154 2.4748 43.5439 2.53425C43.6723 2.5937 43.7845 2.67883 43.872 2.78331L48.6669 8.10953L50.882 8.05627C51.0442 8.04821 51.4936 8.04541 51.5975 8.04541C53.7164 8.04646 54.9818 8.67509 54.9818 9.72842C54.9818 10.0599 54.8368 10.6745 53.8671 11.0656C53.2946 11.2969 52.5308 11.4139 51.5968 11.4139C51.494 11.4139 51.0458 11.4111 50.8813 11.403L48.6665 11.3491L43.8597 16.6753C43.7721 16.7793 43.6601 16.864 43.5318 16.9232C43.4036 16.9823 43.2625 17.0143 43.1189 17.0169Z" fill="#1262AE"/>
<circle cx="4.00656" cy="9.97628" r="2.99016" fill="white" stroke="#1262AE" stroke-width="1.49508"/>
<circle cx="84.2554" cy="9.66455" r="2.99016" fill="white" stroke="#1262AE" stroke-width="1.49508"/>
</svg>
