<svg width="50" height="49" viewBox="0 0 50 49" fill="none" xmlns="http://www.w3.org/2000/svg">
<rect x="0.427185" y="0.0423584" width="48.8794" height="48.8794" rx="11.9606" fill="#F9668D"/>
<path d="M24.0115 21.0901H25.7235V20.2421C25.7235 20.0172 25.8137 19.8015 25.9742 19.6425C26.1348 19.4835 26.3525 19.3941 26.5795 19.3941H29.1476C29.3746 19.3941 29.5923 19.4835 29.7529 19.6425C29.9134 19.8015 30.0036 20.0172 30.0036 20.2421V21.0901H33.4277V17.6981C33.4277 16.7985 33.0669 15.9358 32.4248 15.2997C31.7826 14.6635 30.9117 14.3062 30.0036 14.3062H19.7314C18.8233 14.3062 17.9523 14.6635 17.3102 15.2997C16.6681 15.9358 16.3073 16.7985 16.3073 17.6981V21.0901H19.7314V20.2421C19.7314 20.0172 19.8216 19.8015 19.9821 19.6425C20.1426 19.4835 20.3604 19.3941 20.5874 19.3941H23.1555C23.3825 19.3941 23.6002 19.4835 23.7608 19.6425C23.9213 19.8015 24.0115 20.0172 24.0115 20.2421V21.0901Z" fill="white"/>
<path d="M17.1634 22.7861C16.0283 22.7861 14.9397 23.2328 14.137 24.028C13.3344 24.8231 12.8835 25.9016 12.8835 27.0261V33.81C12.8835 34.0349 12.9737 34.2506 13.1342 34.4096C13.2947 34.5687 13.5124 34.658 13.7395 34.658C13.9665 34.658 14.1842 34.5687 14.3447 34.4096C14.5053 34.2506 14.5954 34.0349 14.5954 33.81V29.5701H35.139V33.81C35.139 34.0349 35.2292 34.2506 35.3897 34.4096C35.5502 34.5687 35.768 34.658 35.995 34.658C36.222 34.658 36.4397 34.5687 36.6003 34.4096C36.7608 34.2506 36.851 34.0349 36.851 33.81V27.0261C36.851 25.9016 36.4001 24.8231 35.5974 24.028C34.7948 23.2328 33.7062 22.7861 32.5711 22.7861H17.1634Z" fill="white"/>
</svg>
