<svg width="50" height="49" viewBox="0 0 50 49" fill="none" xmlns="http://www.w3.org/2000/svg">
<rect x="0.870239" y="0.0423584" width="48.8794" height="48.8794" rx="11.9606" fill="#36DA76"/>
<path d="M31.6399 34.0092C31.5989 33.132 31.5446 32.2595 31.5011 31.3889C31.3604 28.6655 31.3719 25.9021 31.2248 23.1652C31.0776 20.4488 31.1649 17.7306 31.0872 15.0143C31.0716 14.4498 31.0968 13.3349 30.5127 13.0131C29.2561 12.3217 28.5101 14.2075 28.1904 14.9752C27.6141 16.3687 27.2812 17.8343 26.8695 19.278C26.5187 20.5138 26.1192 21.7456 25.9838 23.025C25.8835 23.9851 25.8927 25.0598 26.3942 25.9249C26.6461 26.3596 27.0816 26.6555 27.5774 26.7806C28.092 26.9123 28.6805 26.7399 29.1688 26.9723C29.2947 27.0331 29.4056 27.1595 29.4561 27.2871C29.6144 27.6985 29.4646 28.3225 29.4152 28.7469C29.2584 30.1139 29.0927 31.4946 29.0184 32.8682C28.9746 33.6988 28.926 34.7627 29.4285 35.4865C29.7366 35.926 30.3608 36.3364 30.9241 36.1179C31.7659 35.7957 31.6749 34.7072 31.6399 34.0092Z" fill="white"/>
<path d="M20.9303 13.6194C20.6883 13.7164 20.7801 14.5814 20.7693 14.8471C20.7534 15.3246 20.786 15.9564 20.7285 16.5752C20.7282 16.5807 20.7273 16.5845 20.7265 16.5884C20.7216 16.6314 20.7175 16.6778 20.7104 16.7267C20.7029 16.774 20.6949 16.8196 20.6891 16.8665C20.6375 17.1682 20.5393 17.5254 20.3538 17.6967C20.1431 17.8926 19.671 17.8514 19.507 17.6199C19.2388 17.2431 19.2589 16.4018 19.2426 16.377C19.2317 15.979 19.1737 14.7753 19.0867 13.9816C19.0795 13.9218 19.0679 13.5621 18.7395 13.5237C18.5863 13.507 18.4252 13.6376 18.3729 13.8759C18.2187 14.5796 18.0742 15.9209 18.0651 16.1318C18.0633 16.1523 18.0624 16.1761 18.0623 16.196C18.0623 16.196 18.0615 16.1999 18.0619 16.2016C18.0609 16.2454 18.0088 17.2962 17.7428 17.6588C17.6039 17.8488 17.243 17.9983 16.8844 17.7972C16.7416 17.7162 16.6437 17.5602 16.5747 17.393C16.1997 16.2258 16.5363 14.94 16.5842 14.3274C16.5984 14.155 16.7545 13.5797 16.4063 13.5989C15.8821 13.6274 15.2052 15.8608 15.0842 16.3727C14.7874 17.6464 14.7424 19.0073 15.2586 20.236C15.5454 20.9163 16.1062 21.4732 16.8017 21.7432C17.1091 21.8615 17.4507 21.9473 17.8123 21.9971C17.6822 24.8926 17.5345 27.9142 17.3999 29.5957C17.2964 30.8612 17.1742 32.1405 17.1907 33.4112C17.2004 34.1704 17.1924 35.0757 17.6907 35.7122C18.212 36.3773 19.3116 36.0714 19.6085 35.2855C19.9415 34.3996 19.8447 33.3673 19.7313 31.7408C19.6174 30.1126 19.4892 27.8914 19.4186 26.6963C19.3152 24.9367 19.2792 23.399 19.2692 21.996C20.1952 21.8637 21.0588 21.4664 21.5421 20.7357C21.7541 20.4161 21.8937 20.059 21.9891 19.6916C22.1353 19.1351 22.2066 18.5254 22.1751 17.9514C22.1429 17.4229 21.7086 13.3076 20.9303 13.6194Z" fill="white"/>
</svg>
