<svg width="131" height="25" viewBox="0 0 131 25" fill="none" xmlns="http://www.w3.org/2000/svg">
<g clip-path="url(#clip0_1038_1489)">
<path d="M97.862 6.26462C98.8811 6.26462 99.8063 6.39424 100.638 6.65348C101.469 6.91271 102.171 7.24793 102.743 7.65914C103.1 7.90943 103.382 8.18655 103.588 8.49048C103.793 8.79441 103.896 9.18774 103.896 9.67045V19.0566L103.892 19.3118C103.862 20.1518 103.685 20.8847 103.36 21.5104C103.002 22.1987 102.515 22.7708 101.898 23.2267C101.281 23.6826 100.557 24.0179 99.7258 24.2324C98.8945 24.4469 98.005 24.5542 97.0575 24.5542C95.4305 24.5542 94.1522 24.3352 93.2225 23.8972C92.2929 23.4592 91.828 22.7485 91.828 21.7652C91.828 21.354 91.913 20.9919 92.0828 20.6791C92.2526 20.3662 92.4448 20.1293 92.6594 19.9684C93.1779 20.2545 93.7634 20.4958 94.4159 20.6925C95.0685 20.8891 95.7434 20.9875 96.4407 20.9875C97.4061 20.9875 98.1749 20.8266 98.747 20.5048C99.3191 20.1829 99.6051 19.6645 99.6051 18.9493V18.5203L99.4012 18.604C98.7083 18.87 97.8823 19.003 96.9234 19.003C96.1189 19.003 95.3545 18.8823 94.6305 18.6409C93.9064 18.3996 93.2717 18.0241 92.7264 17.5146C92.1811 17.0051 91.7431 16.348 91.4124 15.5435C91.0816 14.739 90.9162 13.7825 90.9162 12.674C90.9162 11.5834 91.0906 10.6359 91.4392 9.83136C91.7878 9.02683 92.2705 8.36086 92.8873 7.83345C93.5041 7.30604 94.2372 6.91271 95.0864 6.65348C95.9356 6.39424 96.8608 6.26462 97.862 6.26462ZM25.6766 6.68094C27.271 6.68094 28.5756 7.0387 29.5906 7.75422C30.6055 8.46973 31.2063 9.73355 31.393 11.5457H27.9865L27.9539 11.3452C27.8767 10.95 27.7282 10.5891 27.5082 10.2624C27.1349 9.74911 26.5555 9.49245 25.77 9.49245C24.65 9.49245 23.8839 10.0485 23.4717 11.1607C23.254 11.7518 23.1451 12.5373 23.1451 13.5172C23.1451 14.4505 23.254 15.201 23.4717 15.7688C23.8684 16.8265 24.615 17.3554 25.7116 17.3554C26.4894 17.3554 27.0416 17.1454 27.3682 16.7254C27.6948 16.3054 27.8932 15.761 27.9632 15.0921H31.358L31.3349 15.3245C31.2223 16.25 30.8644 17.1292 30.2614 17.962C29.2192 19.4163 27.6754 20.1435 25.63 20.1435C23.5845 20.1435 22.0796 19.5369 21.1152 18.3236C20.1508 17.1104 19.6686 15.5355 19.6686 13.5989C19.6686 11.4135 20.2014 9.71411 21.2669 8.50084C22.3324 7.28758 23.8023 6.68094 25.6766 6.68094ZM56.5736 6.64595C57.6313 6.64595 58.584 6.84427 59.4318 7.24091C60.2795 7.63756 60.9795 8.26363 61.5316 9.11914C62.0294 9.87354 62.3522 10.7485 62.4999 11.744C62.5855 12.3273 62.6205 13.1673 62.6049 14.2639H53.9021L53.914 14.485C53.9971 15.6432 54.3936 16.4639 55.1037 16.947C55.5625 17.2659 56.1147 17.4253 56.7602 17.4253C57.4446 17.4253 58.0007 17.2309 58.4285 16.842C58.6618 16.6321 58.8679 16.3404 59.0468 15.9671H62.4416L62.4164 16.1414C62.2938 16.8394 61.9094 17.5474 61.2633 18.2653C60.1745 19.5019 58.6501 20.1202 56.6902 20.1202C55.0726 20.1202 53.6454 19.5991 52.4088 18.557C51.1722 17.5148 50.5539 15.8193 50.5539 13.4706C50.5539 11.2696 51.1119 9.58189 52.228 8.40751C53.344 7.23313 54.7926 6.64595 56.5736 6.64595ZM79.9186 1.97381C80.3119 1.97381 80.665 2.00063 80.9779 2.05427C81.2908 2.1079 81.5545 2.21517 81.769 2.37608C81.9836 2.53698 82.1489 2.75599 82.2651 3.03311C82.3813 3.31022 82.4395 3.67226 82.4395 4.11922V19.6734L82.3494 19.6896C82.1579 19.7235 81.8974 19.7673 81.5679 19.8209C81.1835 19.8835 80.7946 19.9148 80.4013 19.9148C80.008 19.9148 79.6549 19.8879 79.342 19.8343C79.0292 19.7807 78.7654 19.6734 78.5509 19.5125C78.3364 19.3516 78.171 19.1326 78.0548 18.8555C77.9386 18.5784 77.8805 18.2163 77.8805 17.7694V2.21517L77.9705 2.19903C78.162 2.16509 78.4226 2.12131 78.752 2.06767C79.1364 2.0051 79.5253 1.97381 79.9186 1.97381ZM86.7717 6.61325C87.165 6.61325 87.5181 6.64007 87.831 6.6937C88.1439 6.74734 88.4076 6.85461 88.6221 7.01551C88.8367 7.17642 89.002 7.39543 89.1182 7.67255C89.2345 7.94966 89.2926 8.3117 89.2926 8.75866V19.6734L89.2025 19.6896C89.011 19.7235 88.7505 19.7673 88.421 19.8209C88.0366 19.8835 87.6478 19.9148 87.2544 19.9148C86.8611 19.9148 86.508 19.8879 86.1951 19.8343C85.8823 19.7807 85.6186 19.6734 85.404 19.5125C85.1895 19.3516 85.0241 19.1326 84.9079 18.8555C84.7917 18.5784 84.7336 18.2163 84.7336 17.7694V6.85461L84.8236 6.83846C85.0152 6.80453 85.2757 6.76075 85.6051 6.70711C85.9895 6.64454 86.3784 6.61325 86.7717 6.61325ZM108.121 1.97381C108.514 1.97381 108.867 2.00063 109.18 2.05427C109.493 2.1079 109.757 2.21517 109.971 2.37608C110.186 2.53698 110.351 2.75599 110.467 3.03311C110.584 3.31022 110.642 3.67226 110.642 4.11922V6.74734L110.735 6.71319C110.964 6.63204 111.287 6.54062 111.701 6.43894C112.175 6.32273 112.698 6.26462 113.27 6.26462C115.04 6.26462 116.421 6.70711 117.413 7.59209C118.405 8.47707 118.902 9.7956 118.902 11.5477V19.6734L118.819 19.6964C118.64 19.7424 118.386 19.7883 118.057 19.8343C117.672 19.8879 117.275 19.9148 116.863 19.9148C116.47 19.9148 116.117 19.8879 115.804 19.8343C115.491 19.7807 115.228 19.6734 115.013 19.5125C114.798 19.3516 114.633 19.1326 114.517 18.8555C114.401 18.5784 114.343 18.2163 114.343 17.7694V11.8159L114.339 11.6506C114.313 11.0051 114.131 10.5462 113.793 10.2738C113.426 9.97886 112.975 9.83136 112.439 9.83136C112.081 9.83136 111.741 9.87605 111.419 9.96545C111.098 10.0548 110.838 10.1621 110.642 10.2873V19.6734L110.559 19.6964C110.38 19.7424 110.127 19.7883 109.797 19.8343C109.413 19.8879 109.015 19.9148 108.604 19.9148C108.21 19.9148 107.857 19.8879 107.544 19.8343C107.231 19.7807 106.968 19.6734 106.753 19.5125C106.539 19.3516 106.373 19.1326 106.257 18.8555C106.141 18.5784 106.083 18.2163 106.083 17.7694V2.21517L106.173 2.19903C106.364 2.16509 106.625 2.12131 106.954 2.06767C107.339 2.0051 107.728 1.97381 108.121 1.97381ZM76.0154 3.44878L76.0769 3.5527C76.1774 3.73521 76.2687 3.96427 76.3506 4.2399C76.449 4.57065 76.4981 4.91481 76.4981 5.27237C76.4981 5.96963 76.3506 6.46575 76.0557 6.76075C75.7607 7.05574 75.3629 7.20324 74.8623 7.20324H69.2306V10.2336H75.1036L75.1733 10.3372C75.2863 10.5184 75.3837 10.7432 75.4657 11.0113C75.564 11.3331 75.6132 11.6728 75.6132 12.0304C75.6132 12.7098 75.4657 13.197 75.1707 13.492C74.8757 13.787 74.4779 13.9344 73.9773 13.9344H69.2842V19.593L69.1931 19.6159C68.9972 19.6619 68.7191 19.7079 68.359 19.7539C67.9389 19.8075 67.5232 19.8343 67.112 19.8343C66.7008 19.8343 66.3388 19.803 66.0259 19.7404C65.713 19.6779 65.4493 19.5661 65.2348 19.4052C65.0202 19.2443 64.8593 19.0208 64.752 18.7348C64.6448 18.4487 64.5911 18.0733 64.5911 17.6085V5.94281L64.5958 5.75397C64.6299 5.07385 64.8519 4.52893 65.2616 4.11922C65.7085 3.67226 66.3164 3.44878 67.0852 3.44878H76.0154ZM12.9843 2.52784V5.54934H4.36314V9.50412H11.9111V12.4906H4.36314V19.7002H0.793335V2.52784H12.9843ZM17.8547 6.98426V19.7002H14.4832V6.98426H17.8547ZM36.2284 2.56284V11.8257L40.3698 7.04259H44.4879L40.0432 11.9073L44.6629 19.7002H40.6498L37.605 14.2639L36.2284 15.6988V19.7002H32.9619V2.56284H36.2284ZM48.9967 2.50451V19.7002H45.6719V2.50451H48.9967ZM119.15 3.33849C119.707 3.1709 120.658 3.13362 121.772 3.62604C122.896 4.12314 123.597 4.97577 123.875 6.18395L129.909 6.69678C129.984 6.70112 130.058 6.71625 130.132 6.7422C130.243 6.78111 130.302 6.83586 130.352 6.87872C130.475 6.9838 130.515 7.06482 130.573 7.20991C130.677 7.46791 130.645 7.77156 130.51 7.97977C130.292 8.31545 129.951 8.53264 129.486 8.63135L124.615 9.66674L125.475 13.7121C125.574 14.1765 125.792 14.4756 126.128 14.6094C126.464 14.7433 126.901 14.7532 127.436 14.6393C127.704 14.5824 127.976 14.5012 128.253 14.3958C128.529 14.2904 128.767 14.1792 128.966 14.0622C129.168 14.2245 129.353 14.4139 129.521 14.6303C129.688 14.8468 129.808 15.1247 129.88 15.464C130.146 16.7185 128.172 17.9037 126.878 18.1363C125.679 18.3517 123.84 18.5306 122.788 15.7761C121.737 13.0217 120.086 8.40452 118.825 4.55677C118.716 4.22472 118.649 3.89859 118.766 3.62947C118.829 3.48401 118.875 3.42123 119.15 3.33849ZM98.0765 9.83136C97.2005 9.83136 96.5435 10.0772 96.1054 10.5688C95.6674 11.0605 95.4484 11.7622 95.4484 12.674C95.4484 13.711 95.6674 14.4574 96.1054 14.9133C96.5435 15.3692 97.1022 15.5971 97.7815 15.5971C98.5145 15.5971 99.0956 15.4273 99.5247 15.0876V10.1532L99.4426 10.1103C99.3239 10.0531 99.168 9.99584 98.9749 9.93863C98.7336 9.86712 98.4341 9.83136 98.0765 9.83136ZM56.5736 9.38746C55.8036 9.38746 55.2067 9.62856 54.7828 10.1108C54.359 10.5929 54.0926 11.2462 53.9837 12.0706H59.1518C59.0973 11.1918 58.831 10.5249 58.3527 10.0699C57.8743 9.61495 57.2813 9.38746 56.5736 9.38746ZM17.8547 2.39951V5.46768H14.4832V2.39951H17.8547ZM87.0131 0.632935C87.764 0.632935 88.3674 0.865353 88.8232 1.33019C89.2792 1.79503 89.5071 2.36714 89.5071 3.04652C89.5071 3.72589 89.2792 4.298 88.8232 4.76284C88.3674 5.22768 87.764 5.4601 87.0131 5.4601C86.2622 5.4601 85.6588 5.22768 85.2029 4.76284C84.747 4.298 84.519 3.72589 84.519 3.04652C84.519 2.36714 84.747 1.79503 85.2029 1.33019C85.6588 0.865353 86.2622 0.632935 87.0131 0.632935Z" fill="white"/>
</g>
<defs>
<clipPath id="clip0_1038_1489">
<rect width="130.072" height="24.6688" fill="white" transform="translate(0.793335 0.240234)"/>
</clipPath>
</defs>
</svg>
