<svg width="98" height="24" viewBox="0 0 98 24" fill="none" xmlns="http://www.w3.org/2000/svg">
<path d="M12.0065 1.28882C6.06133 1.28882 1.24194 6.10821 1.24194 12.0534C1.24194 17.9986 6.06133 22.818 12.0065 22.818C17.9517 22.818 22.7711 17.9986 22.7711 12.0534C22.7711 6.10821 17.9517 1.28882 12.0065 1.28882ZM14.5564 8.72758H12.9383C12.7466 8.72758 12.5335 8.97988 12.5335 9.31515V10.4836H14.5575L14.2514 12.1498H12.5335V17.152H10.6239V12.1498H8.89152V10.4836H10.6239V9.50353C10.6239 8.09741 11.5995 6.95479 12.9383 6.95479H14.5564V8.72758Z" fill="white"/>
<g clip-path="url(#clip0_1038_1495)">
<path d="M86.7605 1.28882C80.8153 1.28882 75.9959 6.10821 75.9959 12.0534C75.9959 17.9986 80.8153 22.818 86.7605 22.818C92.7057 22.818 97.5251 17.9986 97.5251 12.0534C97.5251 6.10821 92.7057 1.28882 86.7605 1.28882ZM91.1392 10.1068C91.1437 10.1987 91.1448 10.2907 91.1448 10.3804C91.1448 13.1837 89.0132 16.4142 85.1133 16.4142C83.9609 16.4161 82.8325 16.0851 81.8637 15.461C82.0286 15.4812 82.1979 15.4891 82.3694 15.4891C83.3629 15.4891 84.2768 15.1516 85.0023 14.5819C84.5602 14.5733 84.1318 14.4269 83.7768 14.1632C83.4218 13.8994 83.158 13.5316 83.022 13.1108C83.3395 13.1712 83.6666 13.1585 83.9785 13.0738C83.4986 12.9767 83.0671 12.7167 82.7571 12.3378C82.447 11.9589 82.2776 11.4845 82.2775 10.9949V10.9691C82.5634 11.1272 82.8908 11.2236 83.2384 11.2348C82.7886 10.9354 82.4701 10.4753 82.3482 9.94884C82.2262 9.42234 82.3101 8.86915 82.5825 8.40241C83.1151 9.05725 83.7792 9.59295 84.532 9.97483C85.2847 10.3567 86.1093 10.5762 86.9522 10.6192C86.8451 10.1643 86.8912 9.68676 87.0834 9.26077C87.2757 8.83479 87.6033 8.48425 88.0153 8.26366C88.4273 8.04307 88.9007 7.96478 89.3618 8.04098C89.8229 8.11717 90.2459 8.34357 90.5651 8.68497C91.0396 8.59109 91.4946 8.41704 91.9107 8.17029C91.7525 8.66158 91.4214 9.07875 90.9789 9.34431C91.3992 9.29368 91.8096 9.18068 92.1966 9.00903C91.9123 9.43501 91.5542 9.80678 91.1392 10.1068Z" fill="white"/>
</g>
<g clip-path="url(#clip1_1038_1495)">
<path d="M52.7474 12.0534C52.7474 12.9456 52.393 13.8012 51.7621 14.432C51.1313 15.0629 50.2756 15.4173 49.3835 15.4173C48.4913 15.4173 47.6357 15.0629 47.0048 14.432C46.374 13.8012 46.0195 12.9456 46.0195 12.0534C46.0195 11.8616 46.0397 11.6744 46.0745 11.4927H44.8982V15.9746C44.8982 16.2863 45.1505 16.5386 45.4622 16.5386H53.3058C53.4552 16.5383 53.5984 16.4788 53.7039 16.373C53.8094 16.2673 53.8687 16.124 53.8687 15.9746V11.4927H52.6925C52.7272 11.6744 52.7474 11.8616 52.7474 12.0534ZM49.3835 14.296C49.678 14.2959 49.9697 14.2378 50.2419 14.125C50.514 14.0122 50.7612 13.8469 50.9695 13.6386C51.1777 13.4302 51.3429 13.1829 51.4556 12.9107C51.5682 12.6386 51.6262 12.3468 51.6261 12.0523C51.626 11.7577 51.5679 11.466 51.4551 11.1939C51.3423 10.9218 51.177 10.6745 50.9687 10.4663C50.7603 10.258 50.513 10.0928 50.2408 9.98019C49.9686 9.86752 49.6769 9.80958 49.3823 9.80965C48.7874 9.8098 48.2169 10.0463 47.7963 10.4671C47.3758 10.8878 47.1396 11.4585 47.1397 12.0534C47.1399 12.6483 47.3764 13.2188 47.7971 13.6394C48.2179 14.06 48.7885 14.2962 49.3835 14.296ZM52.0746 9.69864H53.4191C53.5084 9.69864 53.5941 9.66323 53.6573 9.60018C53.7206 9.53713 53.7563 9.45157 53.7566 9.36225V8.0178C53.7566 7.92828 53.721 7.84243 53.6577 7.77914C53.5944 7.71584 53.5086 7.68028 53.4191 7.68028H52.0746C51.9851 7.68028 51.8992 7.71584 51.836 7.77914C51.7727 7.84243 51.7371 7.92828 51.7371 8.0178V9.36225C51.7382 9.54726 51.8896 9.69864 52.0746 9.69864ZM49.3835 1.28882C46.5285 1.28882 43.7905 2.42294 41.7718 4.44169C39.753 6.46044 38.6189 9.19845 38.6189 12.0534C38.6189 14.9083 39.753 17.6463 41.7718 19.6651C43.7905 21.6838 46.5285 22.818 49.3835 22.818C50.7971 22.818 52.1969 22.5395 53.5029 21.9986C54.8089 21.4576 55.9956 20.6647 56.9952 19.6651C57.9948 18.6655 58.7877 17.4788 59.3286 16.1728C59.8696 14.8668 60.148 13.467 60.148 12.0534C60.148 10.6398 59.8696 9.23998 59.3286 7.93397C58.7877 6.62795 57.9948 5.44127 56.9952 4.44169C55.9956 3.44211 54.8089 2.64919 53.5029 2.10822C52.1969 1.56725 50.7971 1.28882 49.3835 1.28882ZM54.99 16.4142C54.99 17.0993 54.4294 17.6599 53.7442 17.6599H45.0227C44.3376 17.6599 43.7769 17.0993 43.7769 16.4142V7.69262C43.7769 7.0075 44.3376 6.44684 45.0227 6.44684H53.7442C54.4294 6.44684 54.99 7.0075 54.99 7.69262V16.4142Z" fill="white"/>
</g>
<defs>
<clipPath id="clip0_1038_1495">
<rect width="22.4262" height="22.4262" fill="white" transform="translate(75.5472 0.840088)"/>
</clipPath>
<clipPath id="clip1_1038_1495">
<rect width="22.4262" height="22.4262" fill="white" transform="translate(38.1703 0.840088)"/>
</clipPath>
</defs>
</svg>
