<svg width="14" height="14" viewBox="0 0 14 14" fill="none" xmlns="http://www.w3.org/2000/svg">
<path d="M13.0156 4.74795L9.2858 4.16171L7.61846 0.506065C7.57292 0.405975 7.498 0.324951 7.40545 0.2757C7.17335 0.15178 6.8913 0.255047 6.77525 0.506065L5.10791 4.16171L1.37808 4.74795C1.27525 4.76384 1.18124 4.81626 1.10925 4.8957C1.02223 4.99243 0.97428 5.12257 0.975932 5.25752C0.977585 5.39247 1.02871 5.52118 1.11807 5.61539L3.81665 8.46079L3.1791 12.4787C3.16415 12.5721 3.17371 12.6683 3.2067 12.7561C3.2397 12.844 3.2948 12.9202 3.36576 12.9759C3.43673 13.0316 3.52071 13.0648 3.6082 13.0715C3.69568 13.0782 3.78316 13.0583 3.86072 13.0141L7.19685 11.1171L10.533 13.0141C10.6241 13.0665 10.7298 13.084 10.8312 13.0649C11.0868 13.0172 11.2587 12.7551 11.2146 12.4787L10.5771 8.46079L13.2756 5.61539C13.3491 5.53754 13.3976 5.43586 13.4123 5.32465C13.4519 5.04663 13.2727 4.78926 13.0156 4.74795V4.74795Z" fill="#FDBF00"/>
</svg>
