<svg width="13" height="14" viewBox="0 0 13 14" fill="none" xmlns="http://www.w3.org/2000/svg">
<path d="M12.2512 5.07107L8.51418 4.48483L6.84364 0.829185C6.79801 0.729095 6.72295 0.648071 6.63022 0.59882C6.39767 0.4749 6.11508 0.578167 5.9988 0.829185L4.32826 4.48483L0.59126 5.07107C0.488232 5.08696 0.394034 5.13938 0.321914 5.21882C0.234724 5.31555 0.186679 5.44569 0.188335 5.58064C0.189991 5.71559 0.241212 5.84431 0.330745 5.93851L3.03452 8.78391L2.39574 12.8018C2.38076 12.8952 2.39034 12.9914 2.4234 13.0793C2.45645 13.1671 2.51166 13.2433 2.58276 13.299C2.65386 13.3548 2.73801 13.3879 2.82566 13.3946C2.91331 13.4014 3.00096 13.3815 3.07867 13.3372L6.42122 11.4402L9.76377 13.3372C9.85503 13.3896 9.961 13.4071 10.0626 13.388C10.3187 13.3404 10.4909 13.0782 10.4467 12.8018L9.80793 8.78391L12.5117 5.93851C12.5853 5.86066 12.6339 5.75898 12.6486 5.64777C12.6883 5.36975 12.5088 5.11238 12.2512 5.07107V5.07107Z" fill="#FDBF00"/>
</svg>
