<svg width="14" height="14" viewBox="0 0 14 14" fill="none" xmlns="http://www.w3.org/2000/svg">
<path d="M13.0156 5.07107L9.2858 4.48483L7.61846 0.829185C7.57292 0.729095 7.498 0.648071 7.40545 0.59882C7.17335 0.4749 6.8913 0.578167 6.77525 0.829185L5.10791 4.48483L1.37808 5.07107C1.27525 5.08696 1.18124 5.13938 1.10925 5.21882C1.02223 5.31555 0.97428 5.44569 0.975932 5.58064C0.977585 5.71559 1.02871 5.84431 1.11807 5.93851L3.81665 8.78391L3.1791 12.8018C3.16415 12.8952 3.17371 12.9914 3.2067 13.0793C3.2397 13.1671 3.2948 13.2433 3.36576 13.299C3.43673 13.3548 3.52071 13.3879 3.6082 13.3946C3.69568 13.4014 3.78316 13.3815 3.86072 13.3372L7.19685 11.4402L10.533 13.3372C10.6241 13.3896 10.7298 13.4071 10.8312 13.388C11.0868 13.3404 11.2587 13.0782 11.2146 12.8018L10.5771 8.78391L13.2756 5.93851C13.3491 5.86066 13.3976 5.75898 13.4123 5.64777C13.4519 5.36975 13.2727 5.11238 13.0156 5.07107V5.07107Z" fill="#FDBF00"/>
</svg>
