<svg width="16" height="16" viewBox="0 0 16 16" fill="none" xmlns="http://www.w3.org/2000/svg">
<path d="M15.5755 13.6789C15.0949 13.2505 14.6742 12.7594 14.3246 12.2188C13.943 11.4725 13.7142 10.6575 13.6518 9.82164V7.35975C13.6551 6.04687 13.1789 4.77798 12.3126 3.79148C11.4463 2.80497 10.2496 2.16876 8.94731 2.00238V1.35949C8.94731 1.18304 8.87721 1.01382 8.75244 0.889048C8.62767 0.764278 8.45845 0.694183 8.282 0.694183C8.10555 0.694183 7.93632 0.764278 7.81155 0.889048C7.68678 1.01382 7.61669 1.18304 7.61669 1.35949V2.01234C6.32606 2.19072 5.14381 2.83078 4.2889 3.81397C3.434 4.79716 2.96436 6.05686 2.96699 7.35975V9.82164C2.90457 10.6575 2.67584 11.4725 2.2942 12.2188C1.95078 12.7582 1.5368 13.2492 1.06326 13.6789C1.0101 13.7256 0.967492 13.7831 0.938276 13.8476C0.909061 13.912 0.893904 13.982 0.893814 14.0527V14.7305C0.893814 14.8627 0.94632 14.9894 1.03978 15.0829C1.13324 15.1763 1.26 15.2288 1.39217 15.2288H15.2466C15.3787 15.2288 15.5055 15.1763 15.599 15.0829C15.6924 14.9894 15.7449 14.8627 15.7449 14.7305V14.0527C15.7448 13.982 15.7297 13.912 15.7005 13.8476C15.6713 13.7831 15.6286 13.7256 15.5755 13.6789ZM1.9304 14.2321C2.39408 13.7842 2.80233 13.2823 3.1464 12.737C3.62712 11.8358 3.90761 10.8413 3.96869 9.82164V7.35975C3.94893 6.77569 4.0469 6.19362 4.25677 5.64821C4.46664 5.1028 4.78412 4.6052 5.1903 4.18504C5.59648 3.76489 6.08306 3.43076 6.62105 3.20256C7.15905 2.97437 7.73747 2.85677 8.32187 2.85677C8.90626 2.85677 9.48468 2.97437 10.0227 3.20256C10.5607 3.43076 11.0473 3.76489 11.4534 4.18504C11.8596 4.6052 12.1771 5.1028 12.387 5.64821C12.5968 6.19362 12.6948 6.77569 12.675 7.35975V9.82164C12.7361 10.8413 13.0166 11.8358 13.4973 12.737C13.8414 13.2823 14.2497 13.7842 14.7133 14.2321H1.9304Z" fill="#424242"/>
</svg>
