<svg width="22" height="21" viewBox="0 0 22 21" fill="none" xmlns="http://www.w3.org/2000/svg">
<path d="M19.1538 3.80733C18.9182 3.16413 18.2585 2.70626 17.481 2.70626H14.5358V1.6161C14.5358 1.01651 14.0057 0.52594 13.3577 0.52594H8.64547C7.99753 0.52594 7.4674 1.01651 7.4674 1.6161V2.70626H4.52224C3.74471 2.70626 3.09677 3.16413 2.84938 3.80733L0.528589 9.98855C0.446125 10.2175 0.399002 10.4573 0.399002 10.7081V18.5136C0.399002 19.4184 1.18831 20.1489 2.1661 20.1489C3.1439 20.1489 3.9332 19.4184 3.9332 18.5136V17.9685H18.07V18.5136C18.07 19.4075 18.8593 20.1489 19.8371 20.1489C20.8031 20.1489 21.6042 19.4184 21.6042 18.5136V10.7081C21.6042 10.4682 21.5571 10.2175 21.4746 9.98855L19.1538 3.80733ZM4.52224 14.698C3.54444 14.698 2.75514 13.9676 2.75514 13.0628C2.75514 12.158 3.54444 11.4276 4.52224 11.4276C5.50003 11.4276 6.28934 12.158 6.28934 13.0628C6.28934 13.9676 5.50003 14.698 4.52224 14.698ZM17.481 14.698C16.5032 14.698 15.7139 13.9676 15.7139 13.0628C15.7139 12.158 16.5032 11.4276 17.481 11.4276C18.4588 11.4276 19.2481 12.158 19.2481 13.0628C19.2481 13.9676 18.4588 14.698 17.481 14.698ZM2.75514 9.24724L4.52224 4.34151H17.481L19.2481 9.24724H2.75514Z" fill="white"/>
</svg>
