<svg width="13" height="14" viewBox="0 0 13 14" fill="none" xmlns="http://www.w3.org/2000/svg">
<path d="M12.2512 4.74795L8.51418 4.16171L6.84364 0.506065C6.79801 0.405975 6.72295 0.324951 6.63022 0.2757C6.39767 0.15178 6.11508 0.255047 5.9988 0.506065L4.32826 4.16171L0.59126 4.74795C0.488232 4.76384 0.394034 4.81626 0.321914 4.8957C0.234724 4.99243 0.186679 5.12257 0.188335 5.25752C0.189991 5.39247 0.241212 5.52118 0.330745 5.61539L3.03452 8.46079L2.39574 12.4787C2.38076 12.5721 2.39034 12.6683 2.4234 12.7561C2.45645 12.844 2.51166 12.9202 2.58276 12.9759C2.65386 13.0316 2.73801 13.0648 2.82566 13.0715C2.91331 13.0782 3.00096 13.0583 3.07867 13.0141L6.42122 11.1171L9.76377 13.0141C9.85503 13.0665 9.961 13.084 10.0626 13.0649C10.3187 13.0172 10.4909 12.7551 10.4467 12.4787L9.80793 8.46079L12.5117 5.61539C12.5853 5.53754 12.6339 5.43586 12.6486 5.32465C12.6883 5.04663 12.5088 4.78926 12.2512 4.74795V4.74795Z" fill="#FDBF00"/>
</svg>
