<svg width="13" height="14" viewBox="0 0 13 14" fill="none" xmlns="http://www.w3.org/2000/svg">
<path d="M12.441 4.74795L8.71113 4.16171L7.0438 0.506065C6.99826 0.405975 6.92334 0.324951 6.83079 0.2757C6.59869 0.15178 6.31664 0.255047 6.20059 0.506065L4.53326 4.16171L0.803438 4.74795C0.700607 4.76384 0.60659 4.81626 0.534608 4.8957C0.447587 4.99243 0.399634 5.12257 0.401286 5.25752C0.402939 5.39247 0.454062 5.52118 0.543423 5.61539L3.242 8.46079L2.60445 12.4787C2.5895 12.5721 2.59906 12.6683 2.63205 12.7561C2.66505 12.844 2.72015 12.9202 2.79111 12.9759C2.86208 13.0316 2.94606 13.0648 3.03354 13.0715C3.12103 13.0782 3.20851 13.0583 3.28607 13.0141L6.62219 11.1171L9.95832 13.0141C10.0494 13.0665 10.1552 13.084 10.2565 13.0649C10.5121 13.0172 10.684 12.7551 10.6399 12.4787L10.0024 8.46079L12.701 5.61539C12.7744 5.53754 12.8229 5.43586 12.8376 5.32465C12.8772 5.04663 12.698 4.78926 12.441 4.74795V4.74795Z" fill="#FDBF00"/>
</svg>
