<svg width="13" height="14" viewBox="0 0 13 14" fill="none" xmlns="http://www.w3.org/2000/svg">
<path d="M12.441 5.07107L8.71113 4.48483L7.0438 0.829185C6.99826 0.729095 6.92334 0.648071 6.83079 0.59882C6.59869 0.4749 6.31664 0.578167 6.20059 0.829185L4.53326 4.48483L0.803438 5.07107C0.700607 5.08696 0.60659 5.13938 0.534608 5.21882C0.447587 5.31555 0.399634 5.44569 0.401286 5.58064C0.402939 5.71559 0.454062 5.84431 0.543423 5.93851L3.242 8.78391L2.60445 12.8018C2.5895 12.8952 2.59906 12.9914 2.63205 13.0793C2.66505 13.1671 2.72015 13.2433 2.79111 13.299C2.86208 13.3548 2.94606 13.3879 3.03354 13.3946C3.12103 13.4014 3.20851 13.3815 3.28607 13.3372L6.62219 11.4402L9.95832 13.3372C10.0494 13.3896 10.1552 13.4071 10.2565 13.388C10.5121 13.3404 10.684 13.0782 10.6399 12.8018L10.0024 8.78391L12.701 5.93851C12.7744 5.86066 12.8229 5.75898 12.8376 5.64777C12.8772 5.36975 12.698 5.11238 12.441 5.07107V5.07107Z" fill="#FDBF00"/>
</svg>
