<svg width="14" height="14" viewBox="0 0 14 14" fill="none" xmlns="http://www.w3.org/2000/svg">
<path d="M12.803 5.07107L9.07315 4.48483L7.40582 0.829185C7.36028 0.729095 7.28536 0.648071 7.19281 0.59882C6.96071 0.4749 6.67865 0.578167 6.5626 0.829185L4.89527 4.48483L1.16544 5.07107C1.06261 5.08696 0.96859 5.13938 0.896608 5.21882C0.809586 5.31555 0.761633 5.44569 0.763286 5.58064C0.764939 5.71559 0.816062 5.84431 0.905422 5.93851L3.604 8.78391L2.96645 12.8018C2.9515 12.8952 2.96106 12.9914 2.99406 13.0793C3.02705 13.1671 3.08215 13.2433 3.15312 13.299C3.22408 13.3548 3.30807 13.3879 3.39555 13.3946C3.48303 13.4014 3.57052 13.3815 3.64807 13.3372L6.98421 11.4402L10.3203 13.3372C10.4114 13.3896 10.5172 13.4071 10.6186 13.388C10.8742 13.3404 11.046 13.0782 11.002 12.8018L10.3644 8.78391L13.063 5.93851C13.1364 5.86066 13.1849 5.75898 13.1996 5.64777C13.2393 5.36975 13.0601 5.11238 12.803 5.07107V5.07107Z" fill="#FDBF00"/>
</svg>
