<svg width="14" height="14" viewBox="0 0 14 14" fill="none" xmlns="http://www.w3.org/2000/svg">
<path d="M12.803 4.74795L9.07315 4.16171L7.40582 0.506065C7.36028 0.405975 7.28536 0.324951 7.19281 0.2757C6.96071 0.15178 6.67865 0.255047 6.5626 0.506065L4.89527 4.16171L1.16544 4.74795C1.06261 4.76384 0.96859 4.81626 0.896608 4.8957C0.809586 4.99243 0.761633 5.12257 0.763286 5.25752C0.764939 5.39247 0.816062 5.52118 0.905422 5.61539L3.604 8.46079L2.96645 12.4787C2.9515 12.5721 2.96106 12.6683 2.99406 12.7561C3.02705 12.844 3.08215 12.9202 3.15312 12.9759C3.22408 13.0316 3.30807 13.0648 3.39555 13.0715C3.48303 13.0782 3.57052 13.0583 3.64807 13.0141L6.98421 11.1171L10.3203 13.0141C10.4114 13.0665 10.5172 13.084 10.6186 13.0649C10.8742 13.0172 11.046 12.7551 11.002 12.4787L10.3644 8.46079L13.063 5.61539C13.1364 5.53754 13.1849 5.43586 13.1996 5.32465C13.2393 5.04663 13.0601 4.78926 12.803 4.74795V4.74795Z" fill="#FDBF00"/>
</svg>
