<svg width="21" height="24" viewBox="0 0 21 24" fill="none" xmlns="http://www.w3.org/2000/svg">
<path d="M0.732544 17.4424C0.732544 18.5388 1.22302 19.5231 1.99018 20.2083V21.8031C1.99018 22.8372 2.83279 23.6719 3.87663 23.6719C4.92047 23.6719 5.76308 22.8372 5.76308 21.8031V21.1801H15.8242V21.8031C15.8242 22.8247 16.6668 23.6719 17.7106 23.6719C18.7419 23.6719 19.5971 22.8372 19.5971 21.8031V20.2083C20.3642 19.5231 20.8547 18.5388 20.8547 17.4424V4.98344C20.8547 0.622797 16.3524 -0.000152588 10.7936 -0.000152588C5.23488 -0.000152588 0.732544 0.622797 0.732544 4.98344V17.4424ZM5.13427 18.6883C4.09043 18.6883 3.24781 17.8536 3.24781 16.8195C3.24781 15.7854 4.09043 14.9506 5.13427 14.9506C6.1781 14.9506 7.02072 15.7854 7.02072 16.8195C7.02072 17.8536 6.1781 18.6883 5.13427 18.6883ZM16.453 18.6883C15.4091 18.6883 14.5665 17.8536 14.5665 16.8195C14.5665 15.7854 15.4091 14.9506 16.453 14.9506C17.4968 14.9506 18.3394 15.7854 18.3394 16.8195C18.3394 17.8536 17.4968 18.6883 16.453 18.6883ZM18.3394 11.2129H3.24781V4.98344H18.3394V11.2129Z" fill="white"/>
</svg>
