<svg width="20" height="20" viewBox="0 0 20 20" fill="none" xmlns="http://www.w3.org/2000/svg">
<g clip-path="url(#clip0_1038_1444)">
<path d="M9.89264 17.4288C7.84988 17.4288 5.89079 16.6174 4.44634 15.1729C3.0019 13.7285 2.19041 11.7694 2.19041 9.72662C2.19041 7.68386 3.0019 5.72477 4.44634 4.28032C5.89079 2.83587 7.84988 2.02439 9.89264 2.02439C11.9354 2.02439 13.8945 2.83587 15.3389 4.28032C16.7834 5.72477 17.5949 7.68386 17.5949 9.72662C17.5949 11.7694 16.7834 13.7285 15.3389 15.1729C13.8945 16.6174 11.9354 17.4288 9.89264 17.4288ZM9.89264 18.5292C12.2272 18.5292 14.4662 17.6018 16.117 15.951C17.7678 14.3002 18.6952 12.0612 18.6952 9.72662C18.6952 7.39204 17.7678 5.15308 16.117 3.50228C14.4662 1.85148 12.2272 0.924072 9.89264 0.924072C7.55806 0.924072 5.3191 1.85148 3.6683 3.50228C2.0175 5.15308 1.0901 7.39204 1.0901 9.72662C1.0901 12.0612 2.0175 14.3002 3.6683 15.951C5.3191 17.6018 7.55806 18.5292 9.89264 18.5292V18.5292Z" fill="#1262AF"/>
<path d="M7.92767 5.98886C8.03147 5.93541 8.148 5.91164 8.26444 5.92014C8.38088 5.92865 8.49272 5.96912 8.58765 6.03709L13.0298 9.21006C13.1121 9.26877 13.1791 9.34627 13.2254 9.43612C13.2716 9.52596 13.2958 9.62556 13.2958 9.72662C13.2958 9.82768 13.2716 9.92728 13.2254 10.0171C13.1791 10.107 13.1121 10.1845 13.0298 10.2432L8.58765 13.4162C8.49275 13.4841 8.38097 13.5245 8.26459 13.533C8.14821 13.5415 8.03173 13.5178 7.92797 13.4644C7.82421 13.411 7.73717 13.33 7.67644 13.2304C7.61571 13.1307 7.58362 13.0163 7.58372 12.8996V6.55365C7.5836 6.43699 7.61563 6.32256 7.67631 6.22292C7.73699 6.12328 7.82396 6.04229 7.92767 5.98886V5.98886Z" fill="#1262AF"/>
</g>
<defs>
<clipPath id="clip0_1038_1444">
<rect width="18.6885" height="18.6885" fill="white" transform="translate(0.548401 0.382446)"/>
</clipPath>
</defs>
</svg>
