<svg width="20" height="20" viewBox="0 0 20 20" fill="none" xmlns="http://www.w3.org/2000/svg">
<g clip-path="url(#clip0_1038_1398)">
<path d="M10.2547 17.4288C8.21194 17.4288 6.25284 16.6174 4.8084 15.1729C3.36395 13.7285 2.55247 11.7694 2.55247 9.72662C2.55247 7.68386 3.36395 5.72477 4.8084 4.28032C6.25284 2.83587 8.21194 2.02439 10.2547 2.02439C12.2975 2.02439 14.2565 2.83587 15.701 4.28032C17.1454 5.72477 17.9569 7.68386 17.9569 9.72662C17.9569 11.7694 17.1454 13.7285 15.701 15.1729C14.2565 16.6174 12.2975 17.4288 10.2547 17.4288ZM10.2547 18.5292C12.5893 18.5292 14.8282 17.6018 16.479 15.951C18.1298 14.3002 19.0572 12.0612 19.0572 9.72662C19.0572 7.39204 18.1298 5.15308 16.479 3.50228C14.8282 1.85148 12.5893 0.924072 10.2547 0.924072C7.92011 0.924072 5.68115 1.85148 4.03035 3.50228C2.37956 5.15308 1.45215 7.39204 1.45215 9.72662C1.45215 12.0612 2.37956 14.3002 4.03035 15.951C5.68115 17.6018 7.92011 18.5292 10.2547 18.5292V18.5292Z" fill="#1262AF"/>
<path d="M8.28969 5.98886C8.39349 5.93541 8.51002 5.91164 8.62646 5.92014C8.7429 5.92865 8.85474 5.96912 8.94967 6.03709L13.3918 9.21006C13.4741 9.26877 13.5411 9.34627 13.5874 9.43612C13.6337 9.52596 13.6578 9.62556 13.6578 9.72662C13.6578 9.82768 13.6337 9.92728 13.5874 10.0171C13.5411 10.107 13.4741 10.1845 13.3918 10.2432L8.94967 13.4162C8.85477 13.4841 8.74299 13.5245 8.62661 13.533C8.51023 13.5415 8.39375 13.5178 8.28999 13.4644C8.18623 13.411 8.0992 13.33 8.03846 13.2304C7.97773 13.1307 7.94565 13.0163 7.94574 12.8996V6.55365C7.94562 6.43699 7.97766 6.32256 8.03834 6.22292C8.09901 6.12328 8.18598 6.04229 8.28969 5.98886V5.98886Z" fill="#1262AF"/>
</g>
<defs>
<clipPath id="clip0_1038_1398">
<rect width="18.6885" height="18.6885" fill="white" transform="translate(0.9104 0.382446)"/>
</clipPath>
</defs>
</svg>
